<?xml version="1.0" standalone="no"?>
<!DOCTYPE svg PUBLIC "-//W3C//DTD SVG 20010904//EN"
 "http://www.w3.org/TR/2001/REC-SVG-20010904/DTD/svg10.dtd">
<svg version="1.0" xmlns="http://www.w3.org/2000/svg"
 width="144.000000pt" height="144.000000pt" viewBox="0 0 144.000000 144.000000"
 preserveAspectRatio="xMidYMid meet">
<metadata>
Created by potrace 1.11, written by Peter Selinger 2001-2013
</metadata>
<g transform="translate(0.000000,144.000000) scale(0.100000,-0.100000)"
fill="#000000" stroke="none">
<path d="M0 720 l0 -720 720 0 720 0 0 720 0 720 -720 0 -720 0 0 -720z m608
215 c-2 -74 -2 -135 -1 -135 1 0 17 13 35 30 42 38 89 54 145 47 53 -6 90 -30
118 -78 17 -30 20 -57 23 -236 l4 -203 -46 0 -46 0 0 163 c0 89 -3 179 -6 199
-9 53 -36 78 -85 78 -34 0 -48 -7 -89 -46 l-50 -47 0 -173 0 -174 -45 0 -45 0
0 355 0 355 46 0 45 0 -3 -135z"/>
</g>
</svg>
